# xmcd CD database file
#
# Track frame offsets:
#	150
#	18596
#	36883
#	53344
#	67031
#	82725
#	97531
#	111326
#	128890
#	146568
#
# Disc length: 2259 seconds
#
# Revision: 1
# Processed by: cddbd v1.5.2PL0 Copyright (c) Steve Scherf et al.
# Submitted via: CDex 1.70beta2
#
DISCID=7808d10a
DTITLE=Chase Rice - Lambs and Lions
DYEAR=2017
DGENRE=Country
TTITLE0=Lions
TTITLE1=On Tonight
TTITLE2=Unforgettable
TTITLE3=Eyes On You
TTITLE4=Saved Me
TTITLE5=One Love, One Kiss, One Drink, One Song
TTITLE6=Jack Daniel's Showed Up
TTITLE7=Three Chords and The Truth
TTITLE8=Amen
TTITLE9=This Cowboy's Hat (f Ned Ledoux)
EXTD=YEAR: 2017
EXTT0=
EXTT1=
EXTT2=
EXTT3=
EXTT4=
EXTT5=
EXTT6=
EXTT7=
EXTT8=
EXTT9=
PLAYORDER=
